PathFileType	4	(X/Y/Z)	/Users/itak/Documents/Research/Walk-IL/dataset/trc/00543_00009.trc
DataRate	CameraRate	NumFrames	NumMarkers	Units	OrigDataRate	OrigDataStartFrame	OrigNumFrames
100.000000	100.000000	4	53	mm	100.000000	555	741
Frame#	Time	RPSI			LPSI			L3			STRN			T10			C7			CLAV			RBAK			LBAK			LSHO			LUPA			LAEL			LAOL			LWTS			LWPS			LFRA			LIFD			LHPS			LHTS			RSHO			RUPA			RAEL			RAOL			RWTS			RWPS			RFRA			RIFD			RHTS			RHPS			RBHD			LFHD			RFHD			LBHD			LHIP			RHIP			RASI			LASI			LKNE			LTHI			LANK			LTIP			LTOE			LMT1			LMT5			LHEE			RKNE			RTHI			RANK			RTIP			RTOE			RMT1			RMT5			RHEE			
		X1	Y1	Z1	X2	Y2	Z2	X3	Y3	Z3	X4	Y4	Z4	X5	Y5	Z5	X6	Y6	Z6	X7	Y7	Z7	X8	Y8	Z8	X9	Y9	Z9	X10	Y10	Z10	X11	Y11	Z11	X12	Y12	Z12	X13	Y13	Z13	X14	Y14	Z14	X15	Y15	Z15	X16	Y16	Z16	X17	Y17	Z17	X18	Y18	Z18	X19	Y19	Z19	X20	Y20	Z20	X21	Y21	Z21	X22	Y22	Z22	X23	Y23	Z23	X24	Y24	Z24	X25	Y25	Z25	X26	Y26	Z26	X27	Y27	Z27	X28	Y28	Z28	X29	Y29	Z29	X30	Y30	Z30	X31	Y31	Z31	X32	Y32	Z32	X33	Y33	Z33	X34	Y34	Z34	X35	Y35	Z35	X36	Y36	Z36	X37	Y37	Z37	X38	Y38	Z38	X39	Y39	Z39	X40	Y40	Z40	X41	Y41	Z41	X42	Y42	Z42	X43	Y43	Z43	X44	Y44	Z44	X45	Y45	Z45	X46	Y46	Z46	X47	Y47	Z47	X48	Y48	Z48	X49	Y49	Z49	X50	Y50	Z50	X51	Y51	Z51	X52	Y52	Z52	X53	Y53	Z53	

556	5.55	573.9470825195312	1007.174133300781	355.2501831054688	584.9827880859375	1008.294311523438	222.5209808349609	588.96337890625	1107.57177734375	289.6055603027344	833.06689453125	1282.232788085938	297.4548034667969	588.802978515625	1233.053833007812	290.9331970214844	650.3201904296875	1503.390869140625	314.5986328125	819.23291015625	1393.93505859375	299.6890869140625	572.348876953125	1379.724853515625	395.2404174804688	612.71435546875	1454.321166992188	223.755126953125	710.0687255859375	1477.294311523438	142.0915374755859	682.220458984375	1356.5927734375	58.54679107666016	658.8291015625	1137.3896484375	24.31793022155762	580.1132202148438	1141.317016601562	86.53594207763672	697.2625732421875	875.026611328125	39.42974472045898	638.9132080078125	871.13671875	-25.63479232788086	661.3829956054688	1049.106079101562	8.638949394226074	650.4093627929688	712.1358642578125	25.69987869262695	632.8287353515625	810.20068359375	-22.45641708374023	689.89013671875	798.5643310546875	13.41827487945557	707.3746337890625	1459.460205078125	467.5806884765625	683.3614501953125	1395.710815429688	532.9996948242188	662.4793701171875	1110.243286132812	584.787109375	606.4962768554688	1095.406616210938	556.8781127929688	782.6472778320312	881.3424682617188	558.4771728515625	734.7813720703125	866.7112426757812	623.295166015625	668.6534423828125	1054.746948242188	594.4747924804688	785.667724609375	707.6896362304688	573.30859375	804.846435546875	789.4102172851562	578.5584716796875	746.6134643554688	791.6515502929688	625.086669921875	726.7656860351562	1669.75048828125	389.1813049316406	876.1033935546875	1705.351196289062	248.2373046875	864.9613647460938	1695.547485351562	392.2424926757812	746.29638671875	1679.127197265625	225.4065856933594	725.130126953125	934.57275390625	101.1684951782227	683.539306640625	933.346435546875	488.008056640625	775.8734741210938	958.94873046875	437.6593017578125	796.42578125	959.9574584960938	161.8027954101562	877.0433349609375	515.7321166992188	137.7863616943359	820.8267822265625	672.6166381835938	105.9650955200195	939.6347045898438	40.41385650634766	118.7735061645508	887.6358032226562	264.6633605957031	118.3754425048828	1130.363403320312	105.6528244018555	184.3449249267578	1062.1162109375	84.32738494873047	215.7025146484375	1055.908569335938	69.68043518066406	110.9001770019531	869.8196411132812	28.73256683349609	169.1642608642578	659.262451171875	489.76123046875	418.6988525390625	711.4069213867188	774.80224609375	476.0720825195312	512.0903930664062	41.2574577331543	367.2919006347656	637.8952026367188	348.17626953125	394.7218933105469	733.8978881835938	42.23323822021484	338.0530700683594	672.4629516601562	44.4024543762207	295.443115234375	643.3272094726562	39.89370727539062	397.8039245605469	459.867919921875	36.08322143554688	306.8490905761719	
557	5.56	578.150634765625	1006.670288085938	353.7646179199219	589.5508422851562	1007.593444824219	221.03857421875	593.2332153320312	1106.687622070312	288.0216369628906	837.07275390625	1281.7490234375	296.3525390625	592.902587890625	1232.17236328125	289.2688903808594	653.9041137695312	1502.687622070312	313.0895080566406	823.0254516601562	1393.426513671875	298.4713745117188	575.8719482421875	1378.939575195312	393.6043395996094	616.4739379882812	1453.445190429688	222.2528076171875	713.8990478515625	1476.514404296875	140.6929168701172	686.3080444335938	1355.618530273438	57.28979873657227	663.3349609375	1136.3134765625	23.41785430908203	584.6008911132812	1140.2841796875	85.52741241455078	702.435546875	874.119873046875	38.89450454711914	644.0634155273438	869.9514770507812	-26.10268211364746	666.093017578125	1048.023803710938	7.828728199005127	655.84228515625	711.0491333007812	25.56499099731445	638.094970703125	808.9960327148438	-22.80660820007324	695.16943359375	797.5580444335938	13.110107421875	710.7335205078125	1458.8232421875	466.2155151367188	686.6422729492188	1395.004028320312	531.5591430664062	666.1735229492188	1109.558837890625	583.4385375976562	610.2369384765625	1094.622314453125	555.4484252929688	786.6848754882812	880.7815551757812	557.4091796875	738.6627807617188	866.1362915039062	622.2227172851562	672.3478393554688	1054.012451171875	593.1558837890625	789.8406372070312	707.1277465820312	572.4259033203125	808.8992309570312	788.884033203125	577.6815185546875	750.569091796875	791.0816040039062	624.0789794921875	730.2664794921875	1669.217407226562	387.83984375	879.7821044921875	1704.82373046875	247.0781555175781	868.4385375976562	1695.022827148438	391.0975952148438	749.9931640625	1678.603515625	224.0961608886719	730.029052734375	933.6604614257812	100.2233276367188	687.370849609375	933.013427734375	486.9207458496094	779.8771362304688	958.4735717773438	436.81689453125	801.25244140625	959.111083984375	160.9500579833984	879.639404296875	514.0824584960938	136.9362182617188	824.4238891601562	671.35302734375	105.2491302490234	939.4511108398438	38.49648284912109	118.1662368774414	888.7855224609375	262.9465942382812	117.7889785766602	1130.95703125	102.5605010986328	182.6069183349609	1062.74169921875	81.71903991699219	214.4306793212891	1055.860473632812	66.85678100585938	109.7302474975586	869.882568359375	27.70490646362305	168.9709167480469	661.5945434570312	489.5199890136719	418.1971740722656	715.0707397460938	774.36083984375	475.1701354980469	512.1217041015625	41.41075134277344	367.3134460449219	639.5029296875	347.9837341308594	394.3861389160156	733.9484252929688	42.22579956054688	338.0968017578125	672.4821166992188	44.42950820922852	295.4685363769531	643.3348999023438	39.86659240722656	397.8638000488281	459.9371337890625	36.41606140136719	306.8550415039062	
558	5.57	582.464599609375	1006.206420898438	352.2503662109375	594.1947631835938	1006.956970214844	219.5176849365234	597.634521484375	1105.825927734375	286.4093627929688	841.1470947265625	1281.318481445312	295.2327880859375	597.0701904296875	1231.321044921875	287.5768127441406	657.5255737304688	1502.02587890625	311.5245361328125	826.8718872070312	1392.981079101562	297.2286987304688	579.4276733398438	1378.192016601562	391.9010620117188	620.2854614257812	1452.607788085938	220.6812896728516	717.7923583984375	1475.766845703125	139.2446899414062	690.5252685546875	1354.646606445312	55.98451232910156	668.1258544921875	1135.221923828125	22.49943351745605	589.327880859375	1139.20068359375	84.44367980957031	707.9993896484375	873.226318359375	38.41529083251953	649.6575317382812	868.7366943359375	-26.56019973754883	671.1500244140625	1046.9248046875	6.995738983154297	661.810546875	709.9555053710938	25.42629241943359	643.8609008789062	807.7637329101562	-23.16329765319824	700.9323120117188	796.561767578125	12.82842445373535	714.1203002929688	1458.256469726562	464.8032531738281	689.94482421875	1394.34130859375	530.069091796875	669.8885498046875	1108.904296875	581.9963989257812	614.0174560546875	1093.872314453125	553.89990234375	790.7772827148438	880.2711791992188	556.2582397460938	742.5639038085938	865.5947265625	621.0587158203125	676.0820922851562	1053.327270507812	591.74853515625	794.0729370117188	706.61328125	571.4645385742188	813.0061645507812	788.4058227539062	576.724609375	754.5538940429688	790.5511474609375	622.9798583984375	733.7866821289062	1668.756103515625	386.4212036132812	883.4733276367188	1704.368041992188	245.8543090820312	871.923095703125	1694.584716796875	389.8791198730469	753.7061767578125	1678.140502929688	222.7141723632812	735.0015869140625	932.8203735351562	99.21504211425781	691.3124389648438	932.6934204101562	485.7841186523438	784.0066528320312	958.0072631835938	435.897705078125	806.1632690429688	958.3289184570312	160.0252075195312	882.050537109375	512.447509765625	136.0245361328125	827.9403686523438	670.103515625	104.4795837402344	939.2532958984375	36.72247695922852	117.5928649902344	889.8890380859375	261.2885131835938	117.2283554077148	1131.68408203125	99.24698638916016	180.7471923828125	1063.52099609375	79.04566192626953	213.1074371337891	1055.84326171875	63.87118148803711	108.5503768920898	869.9594116210938	27.1201343536377	168.8627166748047	663.9920654296875	489.313720703125	417.6382141113281	718.7736206054688	773.9475708007812	474.259033203125	512.1723022460938	41.61477279663086	367.3393859863281	641.1671142578125	347.8260498046875	394.00439453125	734.02392578125	42.22730255126953	338.1684875488281	672.5111083984375	44.46232986450195	295.5040283203125	643.3533325195312	39.83786010742188	397.9244079589844	460.0297241210938	36.81856918334961	306.8739624023438	
559	5.58	586.885986328125	1005.787536621094	350.7026672363281	598.9005126953125	1006.408264160156	217.9608612060547	602.159423828125	1105.007934570312	284.7777709960938	845.28369140625	1280.955200195312	294.0975036621094	601.305908203125	1230.52734375	285.8662414550781	661.1888427734375	1501.421630859375	309.9088745117188	830.7718505859375	1392.615112304688	295.9664611816406	583.0203247070312	1377.4990234375	390.1393737792969	624.1534423828125	1451.831420898438	219.0471954345703	721.7506713867188	1475.071533203125	137.7527008056641	694.8701171875	1353.702758789062	54.63790130615234	673.1926879882812	1134.145751953125	21.55679702758789	594.2838745117188	1138.0859375	83.28641510009766	713.9428100585938	872.374267578125	37.99554824829102	655.6865234375	867.5179443359375	-27.00545501708984	676.5393676757812	1045.838623046875	6.145357608795166	668.3134155273438	708.8862915039062	25.29400825500488	650.1171875	806.53271484375	-23.52085113525391	707.17724609375	795.607177734375	12.57011222839355	717.5416259765625	1457.779418945312	463.3536987304688	693.2764892578125	1393.742309570312	528.5357055664062	673.623779296875	1108.293701171875	580.4585571289062	617.838623046875	1093.173217773438	552.2282104492188	794.9132080078125	879.8223266601562	555.0363159179688	746.4807739257812	865.1021728515625	619.8026733398438	679.8583374023438	1052.709838867188	590.2494506835938	798.3548583984375	706.1597900390625	570.4237060546875	817.1618041992188	787.9871215820312	575.6817016601562	758.561767578125	790.0745239257812	621.7874755859375	737.3272705078125	1668.379760742188	384.9285583496094	887.1767578125	1704.000122070312	244.5679321289062	875.417724609375	1694.247192382812	388.5849304199219	757.433837890625	1677.750854492188	221.2627716064453	740.025390625	932.0842895507812	98.13687133789062	695.3594970703125	932.3907470703125	484.5961608886719	788.2565307617188	957.5579223632812	434.8992614746094	811.1365966796875	957.6357421875	159.0223693847656	884.2788696289062	510.8699645996094	135.0553131103516	831.3590087890625	668.901123046875	103.6468505859375	939.2056884765625	35.18258285522461	117.0783386230469	891.057373046875	259.7598876953125	116.6875152587891	1132.693237304688	95.80768585205078	178.7920074462891	1064.60498046875	76.40029907226562	211.7555084228516	1056.007568359375	60.82257461547852	107.3810272216797	870.2046508789062	27.03763008117676	168.8575897216797	666.4578247070312	489.1495666503906	417.0134582519531	722.4901123046875	773.5723876953125	473.3484497070312	512.2452392578125	41.88163757324219	367.3673706054688	642.8917846679688	347.710693359375	393.5663146972656	734.0956420898438	42.22550582885742	338.23828125	672.5546875	44.5040283203125	295.5511474609375	643.3804321289062	39.8073616027832	397.9827575683594	460.1402893066406	37.30574035644531	306.9110107421875	
